<svg xmlns="http://www.w3.org/2000/svg" viewBox="0 0 64 64" aria-labelledby="title"
aria-describedby="desc" role="img" xmlns:xlink="http://www.w3.org/1999/xlink"
width="256" height="256">
  <title>Puzzle</title>
  <desc>A color styled icon from Orion Icon Library.</desc>
  <path data-name="layer1"
  d="M56 38a5.9 5.9 0 0 0-4.5 2c-1.4 1.4-5.5 2-5.5-2V18H30c-4 0-3.4-4.1-2-5.5a6 6 0 1 0-8 0c1.4 1.4 2 5.5-2 5.5H2v8c0 4 4.1 3.4 5.5 2a5.9 5.9 0 0 1 4.5-2 6 6 0 1 1-4.5 10C6.1 34.6 2 34 2 38v24h24c4 0 3.4-4.1 2-5.5a5.9 5.9 0 0 1-2-4.5 6 6 0 1 1 10 4.5c-1.4 1.4-2 5.5 2 5.5h8V50c0-4 4.1-3.4 5.5-2A6 6 0 1 0 56 38z"
  fill="#44d88d"></path>
  <path d="M20 12.5a4.2 4.2 0 0 1 1 3.4c2.9-.6 2.3-4.1 1-5.4a6 6 0 0 1-1.1-7.6 6 6 0 0 0-.9 9.6zM28 60H4V36a4.4 4.4 0 0 1 .1-1C3 35.2 2 36.1 2 38v24h24c1.9 0 2.8-1 3-2.1zM7.5 28a5.9 5.9 0 0 1 4.5-2 6 6 0 0 1 5.1 9.1A6 6 0 1 0 9.5 26C8.1 27.4 4 28 4 24v-6H2v8c0 4 4.1 3.4 5.5 2zM58 48a6 6 0 0 1-4.5-2c-1.3-1.3-4.8-1.8-5.4 1a4.1 4.1 0 0 1 3.4 1 6 6 0 0 0 9.6-.8 6 6 0 0 1-3.1.8zM40 60c-4 0-3.4-4.1-2-5.5a6 6 0 1 0-9.1-7.6 6 6 0 0 1 7.1 9.6c-1.4 1.4-2 5.5 2 5.5h8v-2z"
  fill="#000064" opacity=".15"></path>
  <path data-name="stroke" d="M56 38a5.9 5.9 0 0 0-4.5 2c-1.4 1.4-5.5 2-5.5-2V18H30c-4 0-3.4-4.1-2-5.5a6 6 0 1 0-8 0c1.4 1.4 2 5.5-2 5.5H2v8c0 4 4.1 3.4 5.5 2a5.9 5.9 0 0 1 4.5-2 6 6 0 1 1-4.5 10C6.1 34.6 2 34 2 38v24h24c4 0 3.4-4.1 2-5.5a5.9 5.9 0 0 1-2-4.5 6 6 0 1 1 10 4.5c-1.4 1.4-2 5.5 2 5.5h8V50c0-4 4.1-3.4 5.5-2A6 6 0 1 0 56 38z"
  fill="none" stroke="#2e4369" stroke-linecap="round" stroke-linejoin="round"
  stroke-width="2"></path>
</svg>